<?xml version="1.0" encoding="UTF-8"?>
<svg xmlns="http://www.w3.org/2000/svg" xmlns:xlink="http://www.w3.org/1999/xlink" width="3028.67" height="3472.52" viewBox="0 0 3028.67 3472.52">
<defs>
<clipPath id="clip-0">
<path clip-rule="nonzero" d="M 0 0 L 3028.671875 0 L 3028.671875 3472.519531 L 0 3472.519531 Z M 0 0 "/>
</clipPath>
<clipPath id="clip-1">
<path clip-rule="evenodd" d="M 2671.398438 2734.421875 L 2671.398438 2359.53125 L 2949.199219 2221.03125 L 2949.199219 2596.03125 Z M 2314.101562 2220.921875 L 2591.898438 2359.421875 L 2591.898438 2734.320312 L 2314.101562 2595.921875 Z M 1843.898438 2732.730469 L 1554 2588.230469 L 1554 2170.730469 L 1889.300781 2003.730469 C 1902.800781 1997.03125 1911.300781 1983.230469 1911.300781 1968.121094 L 1911.300781 1504.21875 C 1911.300781 1503.820312 1911.199219 1503.519531 1911.199219 1503.121094 C 1911.199219 1502.121094 1911.101562 1501.121094 1911 1500.121094 C 1910.800781 1498.621094 1910.601562 1497.21875 1910.300781 1495.820312 C 1910.101562 1495.019531 1910 1494.21875 1909.800781 1493.421875 C 1909.199219 1491.320312 1908.398438 1489.21875 1907.398438 1487.320312 C 1907.199219 1487.121094 1907.199219 1486.71875 1907.101562 1486.421875 C 1906.898438 1486.019531 1906.5 1485.621094 1906.398438 1485.21875 C 1905.5 1483.621094 1904.601562 1482.121094 1903.601562 1480.71875 C 1903.199219 1480.21875 1902.898438 1479.71875 1902.5 1479.21875 C 1901.101562 1477.519531 1899.601562 1475.921875 1897.898438 1474.421875 C 1897.398438 1474.019531 1896.898438 1473.621094 1896.398438 1473.21875 C 1895.101562 1472.21875 1893.699219 1471.21875 1892.199219 1470.320312 C 1891.601562 1469.921875 1890.898438 1469.519531 1890.300781 1469.21875 C 1890 1469.019531 1889.601562 1468.820312 1889.300781 1468.621094 L 1554 1301.621094 L 1554 884.230469 L 1889.300781 717.128906 C 1902.800781 710.328125 1911.300781 696.628906 1911.300781 681.429688 L 1911.300781 663.628906 L 2235.601562 850.929688 L 2235.601562 851.03125 C 2235.300781 852.53125 2235 854.03125 2234.898438 855.53125 C 2234.800781 856.429688 2234.699219 857.429688 2234.699219 858.328125 C 2234.699219 858.730469 2234.601562 859.128906 2234.601562 859.53125 L 2234.601562 1323.21875 C 2234.601562 1338.320312 2243.101562 1352.121094 2256.601562 1358.820312 L 2591.898438 1525.921875 L 2591.898438 1953.921875 L 2256.699219 2120.921875 C 2256.300781 2121.121094 2255.898438 2121.421875 2255.5 2121.621094 C 2254.898438 2121.921875 2254.5 2122.230469 2253.898438 2122.53125 C 2252.300781 2123.421875 2250.898438 2124.53125 2249.5 2125.621094 C 2249 2126.03125 2248.601562 2126.320312 2248.101562 2126.730469 C 2246.398438 2128.230469 2244.898438 2129.820312 2243.5 2131.621094 C 2243.199219 2132.03125 2242.898438 2132.53125 2242.601562 2132.921875 C 2241.5 2134.53125 2240.5 2136.03125 2239.5 2137.730469 C 2239.300781 2138.121094 2239 2138.320312 2238.898438 2138.730469 C 2238.800781 2138.921875 2238.699219 2139.230469 2238.699219 2139.421875 C 2237.800781 2141.421875 2236.898438 2143.621094 2236.300781 2145.820312 C 2236.101562 2146.53125 2236 2147.230469 2235.800781 2147.921875 C 2235.5 2149.421875 2235.199219 2151.03125 2235 2152.53125 C 2234.898438 2153.421875 2234.800781 2154.421875 2234.800781 2155.320312 C 2234.800781 2155.730469 2234.699219 2156.128906 2234.699219 2156.53125 L 2234.699219 2507.03125 Z M 1554 3368.53125 L 1554 2993.621094 L 1831.800781 2855.121094 L 1831.800781 3230.03125 Z M 1196.699219 2855.230469 L 1474.5 2993.730469 L 1474.5 3368.621094 L 1196.699219 3230.121094 Z M 793.898438 2156.730469 C 793.898438 2156.121094 793.800781 2155.53125 793.699219 2155.03125 C 793.699219 2154.421875 793.601562 2154.03125 793.601562 2153.421875 C 793.398438 2151.230469 793 2149.121094 792.601562 2146.921875 C 792.5 2146.730469 792.5 2146.53125 792.398438 2146.320312 C 791.800781 2143.921875 790.800781 2141.519531 789.699219 2139.320312 C 789.601562 2139.121094 789.601562 2139.121094 789.5 2138.921875 C 789.398438 2138.730469 789.300781 2138.53125 789.101562 2138.320312 C 788.101562 2136.320312 786.898438 2134.421875 785.5 2132.621094 C 785.300781 2132.421875 785.199219 2132.121094 784.898438 2131.921875 C 783.398438 2130.03125 781.800781 2128.421875 779.898438 2126.820312 C 779.601562 2126.519531 779.199219 2126.21875 778.898438 2125.921875 C 777.398438 2124.621094 775.800781 2123.53125 774.101562 2122.53125 C 773.699219 2122.320312 773.199219 2121.921875 772.800781 2121.730469 C 772.300781 2121.53125 771.898438 2121.121094 771.5 2120.921875 L 436.199219 1953.820312 L 436.199219 1525.820312 L 771.5 1358.71875 C 785 1351.921875 793.5 1338.21875 793.5 1323.019531 L 793.5 859.328125 C 793.5 858.730469 793.398438 858.128906 793.300781 857.628906 C 793.300781 857.03125 793.199219 856.628906 793.199219 856.128906 C 793 854.328125 792.800781 852.628906 792.398438 850.828125 L 1116.601562 663.53125 L 1116.601562 681.328125 C 1116.601562 696.328125 1125.199219 710.230469 1138.601562 716.929688 L 1473.898438 884.03125 L 1473.898438 1301.421875 L 1138.601562 1468.421875 C 1138.199219 1468.621094 1137.898438 1468.820312 1137.601562 1469.019531 C 1137 1469.320312 1136.300781 1469.71875 1135.699219 1470.121094 C 1134.300781 1471.019531 1132.898438 1471.921875 1131.601562 1473.019531 C 1131 1473.421875 1130.601562 1473.820312 1130.101562 1474.320312 C 1128.398438 1475.820312 1126.898438 1477.421875 1125.5 1479.21875 C 1125.199219 1479.621094 1124.898438 1480.019531 1124.601562 1480.421875 C 1123.398438 1482.121094 1122.300781 1483.820312 1121.398438 1485.519531 C 1121.199219 1485.71875 1121.101562 1486.019531 1120.898438 1486.320312 C 1120.800781 1486.519531 1120.800781 1486.621094 1120.699219 1486.820312 C 1119.699219 1489.019531 1118.699219 1491.320312 1118.101562 1493.621094 C 1118 1493.921875 1118 1494.21875 1117.898438 1494.519531 C 1117.398438 1496.519531 1117.101562 1498.519531 1116.898438 1500.621094 C 1116.800781 1501.21875 1116.800781 1501.820312 1116.699219 1502.421875 C 1116.699219 1503.019531 1116.601562 1503.519531 1116.601562 1504.121094 L 1116.601562 1968.019531 C 1116.601562 1983.019531 1125.199219 1996.921875 1138.601562 2003.621094 L 1473.898438 2170.621094 L 1473.898438 2588.121094 L 1184 2732.621094 L 793.398438 2507.121094 Z M 436.601562 2734.421875 L 436.601562 2359.53125 L 714.398438 2221.03125 L 714.398438 2596.03125 Z M 79.199219 2220.921875 L 357.101562 2359.421875 L 357.101562 2734.320312 L 79.199219 2595.921875 C 79.199219 2596.03125 79.199219 2220.921875 79.199219 2220.921875 Z M 79.199219 923.730469 L 357.101562 1062.21875 L 357.101562 1437.121094 L 79.199219 1298.621094 Z M 396.800781 725.828125 L 664.898438 859.53125 L 396.800781 993.128906 L 128.601562 859.53125 Z M 436.601562 1437.121094 L 436.601562 1062.121094 L 714.398438 923.730469 L 714.398438 1298.621094 Z M 396.800781 2290.421875 L 128.5 2156.730469 L 396.800781 2023.03125 L 665 2156.730469 Z M 1514.199219 83.929688 L 1782.398438 217.628906 L 1514.199219 351.230469 L 1246 217.628906 Z M 1554 420.230469 L 1831.800781 281.828125 L 1831.800781 656.828125 L 1554 795.230469 Z M 1196.699219 281.828125 L 1474.5 420.230469 L 1474.5 795.128906 L 1196.699219 656.730469 Z M 1514.199219 1637.929688 L 1246 1504.21875 L 1514.199219 1370.621094 L 1782.398438 1504.21875 Z M 1554 1706.929688 L 1831.800781 1568.429688 L 1831.800781 1943.320312 L 1554 2081.820312 Z M 1196.699219 1568.429688 L 1474.5 1706.929688 L 1474.5 2081.820312 L 1196.699219 1943.53125 Z M 1514.199219 2924.621094 L 1245.898438 2790.921875 L 1514.199219 2657.230469 L 1782.5 2790.921875 Z M 2631.699219 725.828125 L 2899.800781 859.53125 L 2631.699219 993.128906 L 2363.601562 859.53125 Z M 2671.398438 1437.121094 L 2671.398438 1062.21875 L 2949.199219 923.828125 L 2949.199219 1298.820312 Z M 2314.101562 923.730469 L 2591.898438 1062.121094 L 2591.898438 1437.03125 L 2314.101562 1298.53125 Z M 2631.699219 2290.421875 L 2363.5 2156.730469 L 2631.699219 2023.03125 L 2899.898438 2156.730469 Z M 3028.601562 2155.421875 C 3028.601562 2154.621094 3028.5 2153.820312 3028.398438 2153.03125 C 3028.199219 2151.320312 3027.898438 2149.628906 3027.601562 2148.03125 C 3027.398438 2147.421875 3027.398438 2146.730469 3027.199219 2146.128906 C 3026.601562 2144.03125 3025.800781 2141.820312 3024.800781 2139.929688 C 3024.601562 2139.628906 3024.601562 2139.320312 3024.5 2139.03125 C 3024.300781 2138.53125 3023.898438 2138.230469 3023.699219 2137.730469 C 3022.898438 2136.320312 3022 2134.929688 3021 2133.53125 C 3020.5 2132.929688 3020.101562 2132.230469 3019.699219 2131.628906 C 3018.398438 2129.929688 3016.898438 2128.53125 3015.300781 2127.03125 C 3014.699219 2126.429688 3014 2126.03125 3013.398438 2125.53125 C 3012.101562 2124.628906 3010.898438 2123.628906 3009.5 2122.820312 C 3008.898438 2122.429688 3008.199219 2122.03125 3007.601562 2121.730469 C 3007.199219 2121.53125 3006.898438 2121.230469 3006.5 2121.128906 L 2671.199219 1954.03125 L 2671.199219 1526.03125 L 3006.5 1358.929688 C 3020 1352.128906 3028.5 1338.429688 3028.5 1323.230469 L 3028.5 859.53125 C 3028.5 859.03125 3028.398438 858.628906 3028.398438 858.128906 C 3028.398438 857.328125 3028.300781 856.53125 3028.199219 855.730469 C 3028 854.03125 3027.800781 852.429688 3027.398438 850.730469 C 3027.199219 850.128906 3027.199219 849.429688 3027 848.730469 C 3026.398438 846.628906 3025.699219 844.628906 3024.699219 842.628906 C 3024.5 842.328125 3024.5 842.03125 3024.300781 841.730469 C 3024.101562 841.230469 3023.699219 840.828125 3023.398438 840.328125 C 3022.699219 839.03125 3021.800781 837.628906 3021 836.429688 C 3020.5 835.730469 3020.101562 835.03125 3019.601562 834.429688 C 3018.300781 832.730469 3016.800781 831.328125 3015.300781 829.828125 C 3014.699219 829.230469 3014 828.828125 3013.398438 828.328125 C 3012.199219 827.429688 3011 826.53125 3009.699219 825.730469 C 3009 825.230469 3008.300781 824.828125 3007.601562 824.429688 C 3007.300781 824.230469 3007 824.03125 3006.699219 823.828125 L 2649.398438 645.730469 C 2638.199219 640.128906 2625.101562 640.128906 2613.898438 645.730469 L 2305.601562 799.429688 L 1911.5 571.828125 L 1911.5 217.628906 C 1911.5 217.230469 1911.398438 216.929688 1911.398438 216.53125 C 1911.398438 215.53125 1911.300781 214.53125 1911.199219 213.53125 C 1911 212.03125 1910.800781 210.53125 1910.5 209.128906 C 1910.300781 208.429688 1910.300781 207.628906 1910 206.929688 C 1909.398438 204.730469 1908.601562 202.628906 1907.601562 200.628906 C 1907.5 200.429688 1907.398438 200.128906 1907.398438 199.929688 C 1907.199219 199.53125 1906.898438 199.328125 1906.800781 198.929688 C 1905.898438 197.230469 1904.898438 195.628906 1903.800781 194.128906 C 1903.5 193.628906 1903.199219 193.230469 1902.898438 192.828125 C 1901.5 191.128906 1900 189.429688 1898.300781 187.929688 C 1897.800781 187.53125 1897.300781 187.128906 1896.800781 186.730469 C 1895.5 185.730469 1894 184.730469 1892.601562 183.828125 C 1892 183.429688 1891.398438 183.128906 1890.800781 182.828125 C 1890.398438 182.628906 1890.101562 182.328125 1889.699219 182.230469 L 1532.398438 4.128906 C 1521.300781 -1.371094 1508.101562 -1.371094 1496.898438 4.128906 L 1139.601562 182.230469 C 1139.199219 182.429688 1138.800781 182.730469 1138.300781 182.929688 C 1137.800781 183.128906 1137.398438 183.53125 1136.800781 183.828125 C 1135.199219 184.730469 1133.699219 185.828125 1132.300781 186.929688 C 1131.800781 187.328125 1131.398438 187.628906 1131 188.03125 C 1129.300781 189.53125 1127.699219 191.128906 1126.300781 193.03125 C 1126.101562 193.328125 1125.800781 193.730469 1125.601562 194.03125 C 1124.300781 195.730469 1123.199219 197.53125 1122.101562 199.53125 C 1122 199.730469 1121.898438 199.929688 1121.699219 200.128906 C 1121.601562 200.328125 1121.601562 200.328125 1121.5 200.53125 C 1120.398438 202.828125 1119.5 205.128906 1118.800781 207.53125 C 1118.699219 207.730469 1118.699219 207.929688 1118.601562 208.128906 C 1118 210.230469 1117.699219 212.429688 1117.601562 214.628906 C 1117.5 215.230469 1117.5 215.628906 1117.5 216.230469 C 1117.5 216.828125 1117.300781 217.429688 1117.300781 217.929688 L 1117.300781 572.03125 L 723 799.730469 L 414.800781 646.03125 C 403.601562 640.429688 390.398438 640.429688 379.300781 646.03125 L 22 824.128906 C 21.699219 824.328125 21.402344 824.53125 21.101562 824.730469 C 20.402344 825.128906 19.699219 825.53125 19.101562 826.03125 C 17.699219 826.929688 16.402344 827.828125 15.199219 828.828125 C 14.601562 829.230469 14.101562 829.730469 13.5 830.128906 C 11.800781 831.628906 10.300781 833.230469 8.898438 834.929688 C 8.5 835.429688 8.199219 835.929688 7.800781 836.53125 C 6.800781 837.929688 5.800781 839.429688 5 841.03125 C 4.800781 841.429688 4.398438 841.828125 4.199219 842.230469 C 4 842.429688 4 842.828125 3.898438 843.128906 C 3 845.128906 2.199219 847.128906 1.5 849.230469 C 1.300781 850.03125 1.199219 850.730469 1 851.53125 C 0.699219 853.03125 0.402344 854.53125 0.300781 856.03125 C 0.199219 856.929688 0.101562 857.929688 0.101562 858.828125 C 0.101562 859.230469 0 859.628906 0 860.03125 L 0 1323.730469 C 0 1338.820312 8.5 1352.628906 22 1359.320312 L 357.300781 1526.429688 L 357.300781 1954.421875 L 22 2121.53125 C 21.601562 2121.730469 21.199219 2122.03125 20.800781 2122.230469 C 20.199219 2122.53125 19.800781 2122.820312 19.199219 2123.121094 C 17.699219 2124.03125 16.199219 2125.121094 14.902344 2126.230469 C 14.402344 2126.621094 14 2126.921875 13.5 2127.421875 C 11.800781 2128.921875 10.300781 2130.53125 8.898438 2132.320312 C 8.601562 2132.730469 8.300781 2133.230469 8 2133.621094 C 6.898438 2135.121094 5.898438 2136.730469 5 2138.421875 C 4.800781 2138.820312 4.5 2139.03125 4.398438 2139.421875 C 4.300781 2139.621094 4.199219 2139.921875 4.199219 2140.121094 C 3.300781 2142.121094 2.398438 2144.320312 1.800781 2146.421875 C 1.601562 2147.121094 1.5 2147.820312 1.300781 2148.53125 C 1 2150.03125 0.699219 2151.53125 0.601562 2153.128906 C 0.5 2154.03125 0.402344 2155.03125 0.402344 2155.929688 C 0.402344 2156.320312 0.300781 2156.730469 0.300781 2157.128906 L 0.300781 2620.820312 C 0.300781 2635.820312 8.800781 2649.730469 22.300781 2656.421875 L 379.601562 2834.53125 C 380.199219 2834.730469 380.699219 2835.03125 381.300781 2835.230469 C 381.699219 2835.421875 382.101562 2835.53125 382.398438 2835.730469 C 384.5 2836.621094 386.699219 2837.320312 388.898438 2837.730469 C 389.300781 2837.820312 389.601562 2837.921875 390 2837.921875 C 392.398438 2838.421875 394.898438 2838.621094 397.300781 2838.621094 C 399.699219 2838.621094 402.199219 2838.320312 404.601562 2837.921875 C 404.898438 2837.820312 405.300781 2837.820312 405.601562 2837.730469 C 407.800781 2837.230469 410 2836.53125 412.199219 2835.730469 C 412.5 2835.53125 412.898438 2835.421875 413.199219 2835.320312 C 413.800781 2835.128906 414.398438 2834.820312 415 2834.53125 L 772.300781 2656.421875 C 785.800781 2649.621094 794.300781 2635.921875 794.300781 2620.730469 L 794.300781 2599.230469 L 1117.898438 2786.03125 C 1117.800781 2786.628906 1117.800781 2787.128906 1117.800781 2787.730469 C 1117.699219 2788.320312 1117.699219 2788.921875 1117.601562 2789.53125 C 1117.601562 2790.128906 1117.5 2790.628906 1117.5 2791.230469 L 1117.5 3254.820312 C 1117.5 3269.921875 1126.101562 3283.730469 1139.5 3290.421875 L 1496.300781 3468.421875 C 1496.898438 3468.730469 1497.601562 3469.03125 1498.199219 3469.230469 C 1498.5 3469.421875 1498.800781 3469.421875 1499.101562 3469.621094 C 1501.300781 3470.53125 1503.5 3471.230469 1505.800781 3471.621094 C 1506.101562 3471.730469 1506.398438 3471.730469 1506.800781 3471.820312 C 1509.199219 3472.320312 1511.699219 3472.53125 1514.101562 3472.53125 C 1516.5 3472.53125 1519 3472.230469 1521.398438 3471.820312 C 1521.699219 3471.730469 1522.101562 3471.730469 1522.398438 3471.621094 C 1524.699219 3471.121094 1526.898438 3470.421875 1529 3469.621094 C 1529.300781 3469.421875 1529.601562 3469.421875 1529.898438 3469.230469 C 1530.5 3469.03125 1531.199219 3468.730469 1531.699219 3468.421875 L 1889 3290.320312 C 1902.5 3283.53125 1911 3269.820312 1911 3254.621094 L 1911 2790.921875 C 1911 2790.53125 1910.898438 2790.230469 1910.898438 2789.820312 C 1910.898438 2788.820312 1910.800781 2787.820312 1910.699219 2786.820312 C 1910.699219 2786.53125 1910.699219 2786.230469 1910.601562 2785.921875 L 2234.199219 2599.121094 L 2234.199219 2620.621094 C 2234.199219 2635.621094 2242.699219 2649.53125 2256.199219 2656.230469 L 2613.5 2834.320312 C 2614.101562 2834.628906 2614.699219 2834.820312 2615.300781 2835.128906 C 2615.601562 2835.320312 2615.898438 2835.320312 2616.199219 2835.53125 C 2618.398438 2836.421875 2620.601562 2837.128906 2622.800781 2837.53125 C 2623.101562 2837.628906 2623.5 2837.628906 2623.800781 2837.730469 C 2626.199219 2838.230469 2628.699219 2838.421875 2631.101562 2838.421875 C 2633.5 2838.421875 2636 2838.121094 2638.398438 2837.730469 C 2638.699219 2837.621094 2639.101562 2837.621094 2639.398438 2837.53125 C 2641.601562 2837.03125 2643.800781 2836.320312 2646 2835.53125 C 2646.300781 2835.320312 2646.699219 2835.230469 2647 2835.03125 C 2647.601562 2834.820312 2648.199219 2834.53125 2648.699219 2834.230469 L 3006 2656.121094 C 3019.5 2649.320312 3028 2635.621094 3028 2620.421875 L 3028 2156.730469 C 3028.800781 2156.230469 3028.699219 2155.820312 3028.601562 2155.421875 "/>
</clipPath>
<linearGradient id="linear-pattern-0" gradientUnits="userSpaceOnUse" x1="-0.174951" y1="0" x2="1.173429" y2="0" gradientTransform="matrix(2410.74, 2410.74, -2410.74, 2410.74, 308.875, 534.65)">
<stop offset="0" stop-color="rgb(83.769226%, 15.103149%, 17.62085%)" stop-opacity="1"/>
<stop offset="0.125" stop-color="rgb(83.769226%, 15.103149%, 17.62085%)" stop-opacity="1"/>
<stop offset="0.132812" stop-color="rgb(83.773804%, 15.193176%, 17.570496%)" stop-opacity="1"/>
<stop offset="0.136719" stop-color="rgb(83.789062%, 15.513611%, 17.391968%)" stop-opacity="1"/>
<stop offset="0.140625" stop-color="rgb(83.80127%, 15.742493%, 17.263794%)" stop-opacity="1"/>
<stop offset="0.144531" stop-color="rgb(83.808899%, 15.881348%, 17.141724%)" stop-opacity="1"/>
<stop offset="0.148438" stop-color="rgb(83.816528%, 16.020203%, 17.019653%)" stop-opacity="1"/>
<stop offset="0.152344" stop-color="rgb(83.898926%, 16.189575%, 16.899109%)" stop-opacity="1"/>
<stop offset="0.15625" stop-color="rgb(83.978271%, 16.357422%, 16.777039%)" stop-opacity="1"/>
<stop offset="0.160156" stop-color="rgb(84.182739%, 16.598511%, 16.654968%)" stop-opacity="1"/>
<stop offset="0.164062" stop-color="rgb(84.384155%, 16.838074%, 16.531372%)" stop-opacity="1"/>
<stop offset="0.167969" stop-color="rgb(84.416199%, 16.978455%, 16.407776%)" stop-opacity="1"/>
<stop offset="0.171875" stop-color="rgb(84.446716%, 17.118835%, 16.282654%)" stop-opacity="1"/>
<stop offset="0.175781" stop-color="rgb(84.487915%, 17.242432%, 16.15448%)" stop-opacity="1"/>
<stop offset="0.179688" stop-color="rgb(84.529114%, 17.364502%, 16.02478%)" stop-opacity="1"/>
<stop offset="0.183594" stop-color="rgb(84.631348%, 17.480469%, 15.887451%)" stop-opacity="1"/>
<stop offset="0.1875" stop-color="rgb(84.733582%, 17.597961%, 15.748596%)" stop-opacity="1"/>
<stop offset="0.191406" stop-color="rgb(84.757996%, 17.800903%, 15.660095%)" stop-opacity="1"/>
<stop offset="0.195313" stop-color="rgb(84.780884%, 18.003845%, 15.570068%)" stop-opacity="1"/>
<stop offset="0.199219" stop-color="rgb(84.825134%, 18.186951%, 15.467834%)" stop-opacity="1"/>
<stop offset="0.203125" stop-color="rgb(84.867859%, 18.36853%, 15.365601%)" stop-opacity="1"/>
<stop offset="0.207031" stop-color="rgb(84.971619%, 18.486023%, 15.223694%)" stop-opacity="1"/>
<stop offset="0.210938" stop-color="rgb(85.073853%, 18.60199%, 15.083313%)" stop-opacity="1"/>
<stop offset="0.214844" stop-color="rgb(85.099792%, 18.804932%, 14.988708%)" stop-opacity="1"/>
<stop offset="0.21875" stop-color="rgb(85.124207%, 19.007874%, 14.89563%)" stop-opacity="1"/>
<stop offset="0.222656" stop-color="rgb(85.2005%, 19.195557%, 14.81781%)" stop-opacity="1"/>
<stop offset="0.226562" stop-color="rgb(85.275269%, 19.38324%, 14.73999%)" stop-opacity="1"/>
<stop offset="0.234375" stop-color="rgb(85.476685%, 19.514465%, 14.674377%)" stop-opacity="1"/>
<stop offset="0.238281" stop-color="rgb(85.798645%, 19.841003%, 14.512634%)" stop-opacity="1"/>
<stop offset="0.242188" stop-color="rgb(85.922241%, 20.037842%, 14.41803%)" stop-opacity="1"/>
<stop offset="0.246094" stop-color="rgb(85.997009%, 20.214844%, 14.346313%)" stop-opacity="1"/>
<stop offset="0.25" stop-color="rgb(86.071777%, 20.39032%, 14.273071%)" stop-opacity="1"/>
<stop offset="0.257812" stop-color="rgb(86.077881%, 20.49408%, 14.259338%)" stop-opacity="1"/>
<stop offset="0.265625" stop-color="rgb(86.169434%, 20.704651%, 14.169312%)" stop-opacity="1"/>
<stop offset="0.273438" stop-color="rgb(86.38916%, 20.924377%, 14.031982%)" stop-opacity="1"/>
<stop offset="0.28125" stop-color="rgb(86.724854%, 21.159363%, 13.957214%)" stop-opacity="1"/>
<stop offset="0.285156" stop-color="rgb(87.054443%, 21.478271%, 13.861084%)" stop-opacity="1"/>
<stop offset="0.289063" stop-color="rgb(87.181091%, 21.673584%, 13.774109%)" stop-opacity="1"/>
<stop offset="0.292969" stop-color="rgb(87.260437%, 21.861267%, 13.659668%)" stop-opacity="1"/>
<stop offset="0.296875" stop-color="rgb(87.341309%, 22.047424%, 13.543701%)" stop-opacity="1"/>
<stop offset="0.300781" stop-color="rgb(87.348938%, 22.174072%, 13.404846%)" stop-opacity="1"/>
<stop offset="0.304688" stop-color="rgb(87.356567%, 22.30072%, 13.265991%)" stop-opacity="1"/>
<stop offset="0.308594" stop-color="rgb(87.446594%, 22.496033%, 13.15155%)" stop-opacity="1"/>
<stop offset="0.3125" stop-color="rgb(87.535095%, 22.689819%, 13.037109%)" stop-opacity="1"/>
<stop offset="0.316406" stop-color="rgb(87.615967%, 22.872925%, 12.954712%)" stop-opacity="1"/>
<stop offset="0.320312" stop-color="rgb(87.698364%, 23.05603%, 12.870789%)" stop-opacity="1"/>
<stop offset="0.328125" stop-color="rgb(87.704468%, 23.161316%, 12.85553%)" stop-opacity="1"/>
<stop offset="0.332031" stop-color="rgb(87.799072%, 23.446655%, 12.799072%)" stop-opacity="1"/>
<stop offset="0.335938" stop-color="rgb(87.886047%, 23.628235%, 12.759399%)" stop-opacity="1"/>
<stop offset="0.339844" stop-color="rgb(87.969971%, 23.834229%, 12.716675%)" stop-opacity="1"/>
<stop offset="0.34375" stop-color="rgb(88.05542%, 24.040222%, 12.672424%)" stop-opacity="1"/>
<stop offset="0.347656" stop-color="rgb(88.067627%, 24.249268%, 12.640381%)" stop-opacity="1"/>
<stop offset="0.351562" stop-color="rgb(88.08136%, 24.458313%, 12.608337%)" stop-opacity="1"/>
<stop offset="0.359375" stop-color="rgb(88.088989%, 24.589539%, 12.588501%)" stop-opacity="1"/>
<stop offset="0.367188" stop-color="rgb(88.131714%, 24.848938%, 12.54425%)" stop-opacity="1"/>
<stop offset="0.371094" stop-color="rgb(88.278198%, 25.184631%, 12.471008%)" stop-opacity="1"/>
<stop offset="0.375" stop-color="rgb(88.389587%, 25.389099%, 12.423706%)" stop-opacity="1"/>
<stop offset="0.378906" stop-color="rgb(88.502502%, 25.622559%, 12.399292%)" stop-opacity="1"/>
<stop offset="0.382812" stop-color="rgb(88.615417%, 25.854492%, 12.374878%)" stop-opacity="1"/>
<stop offset="0.386719" stop-color="rgb(88.728333%, 26.062012%, 12.355042%)" stop-opacity="1"/>
<stop offset="0.390625" stop-color="rgb(88.839722%, 26.271057%, 12.335205%)" stop-opacity="1"/>
<stop offset="0.398438" stop-color="rgb(88.945007%, 26.373291%, 12.301636%)" stop-opacity="1"/>
<stop offset="0.402344" stop-color="rgb(89.089966%, 26.657104%, 12.236023%)" stop-opacity="1"/>
<stop offset="0.40625" stop-color="rgb(89.128113%, 26.838684%, 12.203979%)" stop-opacity="1"/>
<stop offset="0.410156" stop-color="rgb(89.16626%, 27.050781%, 12.167358%)" stop-opacity="1"/>
<stop offset="0.414063" stop-color="rgb(89.201355%, 27.259827%, 12.130737%)" stop-opacity="1"/>
<stop offset="0.417969" stop-color="rgb(89.315796%, 27.468872%, 12.081909%)" stop-opacity="1"/>
<stop offset="0.421875" stop-color="rgb(89.430237%, 27.676392%, 12.031555%)" stop-opacity="1"/>
<stop offset="0.429688" stop-color="rgb(89.466858%, 27.810669%, 12.005615%)" stop-opacity="1"/>
<stop offset="0.4375" stop-color="rgb(89.533997%, 28.07312%, 11.956787%)" stop-opacity="1"/>
<stop offset="0.441406" stop-color="rgb(89.678955%, 28.410339%, 11.882019%)" stop-opacity="1"/>
<stop offset="0.445312" stop-color="rgb(89.793396%, 28.619385%, 11.833191%)" stop-opacity="1"/>
<stop offset="0.453125" stop-color="rgb(89.903259%, 28.755188%, 11.793518%)" stop-opacity="1"/>
<stop offset="0.460938" stop-color="rgb(90.103149%, 29.014587%, 11.721802%)" stop-opacity="1"/>
<stop offset="0.464844" stop-color="rgb(90.206909%, 29.353333%, 11.654663%)" stop-opacity="1"/>
<stop offset="0.46875" stop-color="rgb(90.220642%, 29.56543%, 11.621094%)" stop-opacity="1"/>
<stop offset="0.476562" stop-color="rgb(90.371704%, 29.701233%, 11.575317%)" stop-opacity="1"/>
<stop offset="0.480469" stop-color="rgb(90.715027%, 29.962158%, 11.476135%)" stop-opacity="1"/>
<stop offset="0.484375" stop-color="rgb(90.907288%, 30.085754%, 11.424255%)" stop-opacity="1"/>
<stop offset="0.488281" stop-color="rgb(91.02478%, 30.299377%, 11.373901%)" stop-opacity="1"/>
<stop offset="0.492188" stop-color="rgb(91.140747%, 30.509949%, 11.322021%)" stop-opacity="1"/>
<stop offset="0.5" stop-color="rgb(91.183472%, 30.651855%, 11.29303%)" stop-opacity="1"/>
<stop offset="0.507812" stop-color="rgb(91.268921%, 30.903625%, 11.247253%)" stop-opacity="1"/>
<stop offset="0.515625" stop-color="rgb(91.52832%, 31.161499%, 11.209106%)" stop-opacity="1"/>
<stop offset="0.519531" stop-color="rgb(91.821289%, 31.495667%, 11.158752%)" stop-opacity="1"/>
<stop offset="0.523438" stop-color="rgb(91.902161%, 31.686401%, 11.128235%)" stop-opacity="1"/>
<stop offset="0.527344" stop-color="rgb(91.934204%, 31.90155%, 11.091614%)" stop-opacity="1"/>
<stop offset="0.53125" stop-color="rgb(91.967773%, 32.118225%, 11.053467%)" stop-opacity="1"/>
<stop offset="0.535156" stop-color="rgb(92.085266%, 32.333374%, 11.000061%)" stop-opacity="1"/>
<stop offset="0.539062" stop-color="rgb(92.204285%, 32.546997%, 10.948181%)" stop-opacity="1"/>
<stop offset="0.542969" stop-color="rgb(92.256165%, 32.762146%, 10.905457%)" stop-opacity="1"/>
<stop offset="0.546875" stop-color="rgb(92.306519%, 32.977295%, 10.864258%)" stop-opacity="1"/>
<stop offset="0.550781" stop-color="rgb(92.338562%, 33.192444%, 10.827637%)" stop-opacity="1"/>
<stop offset="0.554688" stop-color="rgb(92.370605%, 33.407593%, 10.78949%)" stop-opacity="1"/>
<stop offset="0.558594" stop-color="rgb(92.489624%, 33.624268%, 10.736084%)" stop-opacity="1"/>
<stop offset="0.5625" stop-color="rgb(92.608643%, 33.839417%, 10.682678%)" stop-opacity="1"/>
<stop offset="0.566406" stop-color="rgb(92.663574%, 34.056091%, 10.639954%)" stop-opacity="1"/>
<stop offset="0.570313" stop-color="rgb(92.715454%, 34.27124%, 10.598755%)" stop-opacity="1"/>
<stop offset="0.574219" stop-color="rgb(92.745972%, 34.487915%, 10.560608%)" stop-opacity="1"/>
<stop offset="0.578125" stop-color="rgb(92.776489%, 34.703064%, 10.522461%)" stop-opacity="1"/>
<stop offset="0.582031" stop-color="rgb(92.897034%, 34.919739%, 10.469055%)" stop-opacity="1"/>
<stop offset="0.585938" stop-color="rgb(93.017578%, 35.136414%, 10.414124%)" stop-opacity="1"/>
<stop offset="0.59375" stop-color="rgb(93.067932%, 35.287476%, 10.38208%)" stop-opacity="1"/>
<stop offset="0.601562" stop-color="rgb(93.141174%, 35.569763%, 10.327148%)" stop-opacity="1"/>
<stop offset="0.605469" stop-color="rgb(93.292236%, 36.030579%, 10.229492%)" stop-opacity="1"/>
<stop offset="0.609375" stop-color="rgb(93.421936%, 36.357117%, 10.15625%)" stop-opacity="1"/>
<stop offset="0.613281" stop-color="rgb(93.476868%, 36.549377%, 10.118103%)" stop-opacity="1"/>
<stop offset="0.617188" stop-color="rgb(93.533325%, 36.741638%, 10.07843%)" stop-opacity="1"/>
<stop offset="0.625" stop-color="rgb(93.54248%, 36.87439%, 10.057068%)" stop-opacity="1"/>
<stop offset="0.628906" stop-color="rgb(93.579102%, 37.329102%, 9.9823%)" stop-opacity="1"/>
<stop offset="0.632812" stop-color="rgb(93.603516%, 37.654114%, 9.928894%)" stop-opacity="1"/>
<stop offset="0.636719" stop-color="rgb(93.682861%, 37.850952%, 9.884644%)" stop-opacity="1"/>
<stop offset="0.640625" stop-color="rgb(93.762207%, 38.047791%, 9.840393%)" stop-opacity="1"/>
<stop offset="0.648438" stop-color="rgb(93.865967%, 38.168335%, 9.802246%)" stop-opacity="1"/>
<stop offset="0.652344" stop-color="rgb(93.988037%, 38.50708%, 9.727478%)" stop-opacity="1"/>
<stop offset="0.65625" stop-color="rgb(94.004822%, 38.725281%, 9.692383%)" stop-opacity="1"/>
<stop offset="0.660156" stop-color="rgb(94.084167%, 38.945007%, 9.643555%)" stop-opacity="1"/>
<stop offset="0.664062" stop-color="rgb(94.163513%, 39.163208%, 9.596252%)" stop-opacity="1"/>
<stop offset="0.667969" stop-color="rgb(94.277954%, 39.376831%, 9.542847%)" stop-opacity="1"/>
<stop offset="0.671875" stop-color="rgb(94.392395%, 39.587402%, 9.487915%)" stop-opacity="1"/>
<stop offset="0.679687" stop-color="rgb(94.400024%, 39.697266%, 9.47113%)" stop-opacity="1"/>
<stop offset="0.683594" stop-color="rgb(94.483948%, 39.978027%, 9.411621%)" stop-opacity="1"/>
<stop offset="0.6875" stop-color="rgb(94.558716%, 40.151978%, 9.371948%)" stop-opacity="1"/>
<stop offset="0.691406" stop-color="rgb(94.683838%, 40.374756%, 9.313965%)" stop-opacity="1"/>
<stop offset="0.695312" stop-color="rgb(94.807434%, 40.597534%, 9.255981%)" stop-opacity="1"/>
<stop offset="0.699219" stop-color="rgb(94.93103%, 40.820312%, 9.197998%)" stop-opacity="1"/>
<stop offset="0.703125" stop-color="rgb(95.054626%, 41.043091%, 9.141541%)" stop-opacity="1"/>
<stop offset="0.707031" stop-color="rgb(95.120239%, 41.264343%, 9.094238%)" stop-opacity="1"/>
<stop offset="0.710938" stop-color="rgb(95.185852%, 41.48407%, 9.048462%)" stop-opacity="1"/>
<stop offset="0.714844" stop-color="rgb(95.210266%, 41.702271%, 9.011841%)" stop-opacity="1"/>
<stop offset="0.71875" stop-color="rgb(95.233154%, 41.920471%, 8.973694%)" stop-opacity="1"/>
<stop offset="0.722656" stop-color="rgb(95.358276%, 42.146301%, 8.91571%)" stop-opacity="1"/>
<stop offset="0.726562" stop-color="rgb(95.483398%, 42.36908%, 8.856201%)" stop-opacity="1"/>
<stop offset="0.730469" stop-color="rgb(95.550537%, 42.591858%, 8.810425%)" stop-opacity="1"/>
<stop offset="0.734375" stop-color="rgb(95.617676%, 42.811584%, 8.763123%)" stop-opacity="1"/>
<stop offset="0.738281" stop-color="rgb(95.635986%, 43.031311%, 8.726501%)" stop-opacity="1"/>
<stop offset="0.742188" stop-color="rgb(95.654297%, 43.247986%, 8.68988%)" stop-opacity="1"/>
<stop offset="0.746094" stop-color="rgb(95.672607%, 43.467712%, 8.653259%)" stop-opacity="1"/>
<stop offset="0.75" stop-color="rgb(95.690918%, 43.684387%, 8.616638%)" stop-opacity="1"/>
<stop offset="0.753906" stop-color="rgb(95.709229%, 43.904114%, 8.580017%)" stop-opacity="1"/>
<stop offset="0.757812" stop-color="rgb(95.727539%, 44.122314%, 8.543396%)" stop-opacity="1"/>
<stop offset="0.761719" stop-color="rgb(95.74585%, 44.340515%, 8.505249%)" stop-opacity="1"/>
<stop offset="0.765625" stop-color="rgb(95.76416%, 44.558716%, 8.468628%)" stop-opacity="1"/>
<stop offset="0.769531" stop-color="rgb(95.782471%, 44.776917%, 8.432007%)" stop-opacity="1"/>
<stop offset="0.773437" stop-color="rgb(95.800781%, 44.995117%, 8.395386%)" stop-opacity="1"/>
<stop offset="0.777344" stop-color="rgb(95.819092%, 45.213318%, 8.358765%)" stop-opacity="1"/>
<stop offset="0.78125" stop-color="rgb(95.837402%, 45.433044%, 8.322144%)" stop-opacity="1"/>
<stop offset="0.785156" stop-color="rgb(95.855713%, 45.651245%, 8.285522%)" stop-opacity="1"/>
<stop offset="0.789062" stop-color="rgb(95.874023%, 45.866394%, 8.248901%)" stop-opacity="1"/>
<stop offset="0.796875" stop-color="rgb(95.883179%, 45.976257%, 8.230591%)" stop-opacity="1"/>
<stop offset="0.800781" stop-color="rgb(95.910645%, 46.304321%, 8.175659%)" stop-opacity="1"/>
<stop offset="0.804688" stop-color="rgb(95.928955%, 46.524048%, 8.139038%)" stop-opacity="1"/>
<stop offset="0.808594" stop-color="rgb(95.956421%, 46.852112%, 8.084106%)" stop-opacity="1"/>
<stop offset="0.8125" stop-color="rgb(95.985413%, 47.180176%, 8.027649%)" stop-opacity="1"/>
<stop offset="0.816406" stop-color="rgb(96.003723%, 47.398376%, 7.991028%)" stop-opacity="1"/>
<stop offset="0.820312" stop-color="rgb(96.022034%, 47.616577%, 7.954407%)" stop-opacity="1"/>
<stop offset="0.824219" stop-color="rgb(96.044922%, 47.888184%, 7.90863%)" stop-opacity="1"/>
<stop offset="0.828125" stop-color="rgb(96.06781%, 48.15979%, 7.862854%)" stop-opacity="1"/>
<stop offset="0.832031" stop-color="rgb(96.095276%, 48.487854%, 7.807922%)" stop-opacity="1"/>
<stop offset="0.835938" stop-color="rgb(96.122742%, 48.815918%, 7.752991%)" stop-opacity="1"/>
<stop offset="0.84375" stop-color="rgb(96.131897%, 48.928833%, 7.73468%)" stop-opacity="1"/>
<stop offset="0.847656" stop-color="rgb(96.159363%, 49.255371%, 7.679749%)" stop-opacity="1"/>
<stop offset="0.851562" stop-color="rgb(96.177673%, 49.467468%, 7.643127%)" stop-opacity="1"/>
<stop offset="0.855469" stop-color="rgb(96.205139%, 49.795532%, 7.588196%)" stop-opacity="1"/>
<stop offset="0.859375" stop-color="rgb(96.232605%, 50.123596%, 7.533264%)" stop-opacity="1"/>
<stop offset="0.867187" stop-color="rgb(96.24176%, 50.238037%, 7.513428%)" stop-opacity="1"/>
<stop offset="0.875" stop-color="rgb(96.257019%, 50.413513%, 7.484436%)" stop-opacity="1"/>
<stop offset="1" stop-color="rgb(96.261597%, 50.471497%, 7.473755%)" stop-opacity="1"/>
</linearGradient>
</defs>
<g clip-path="url(#clip-0)">
<g clip-path="url(#clip-1)">
<path fill-rule="nonzero" fill="url(#linear-pattern-0)" d="M 1514.335938 -1514.335938 L -1736.261719 1736.261719 L 1514.335938 4986.855469 L 4764.929688 1736.261719 Z M 1514.335938 -1514.335938 "/>
</g>
</g>
</svg>
